<svg width="100" height="100" viewBox="0 0 100 100" fill="none" xmlns="http://www.w3.org/2000/svg">
<path d="M84.6542 18.3C78.2806 15.384 71.4458 13.2356 64.2996 12.0052C64.1694 11.9814 64.0394 12.0408 63.9724 12.1595C63.0934 13.7183 62.1197 15.7519 61.4379 17.3504C53.7517 16.203 46.1049 16.203 38.5763 17.3504C37.8944 15.7164 36.8854 13.7183 36.0024 12.1595C35.9354 12.0447 35.8054 11.9854 35.6752 12.0052C28.533 13.2317 21.6982 15.3801 15.3206 18.3C15.2654 18.3237 15.218 18.3633 15.1866 18.4147C2.22247 37.7265 -1.32896 56.5636 0.413251 75.1671C0.421134 75.2581 0.472374 75.3452 0.543325 75.4005C9.0967 81.6636 17.3821 85.4659 25.5137 87.9861C25.6438 88.0258 25.7817 87.9783 25.8645 87.8714C27.788 85.2523 29.5027 82.4906 30.9728 79.5865C31.0596 79.4164 30.9768 79.2146 30.7994 79.1473C28.0797 78.1186 25.49 76.8644 22.9989 75.4401C22.8018 75.3254 22.7861 75.0444 22.9673 74.9098C23.4916 74.5182 24.0159 74.1106 24.5165 73.6991C24.607 73.624 24.7332 73.6081 24.8397 73.6556C41.2054 81.1058 58.9231 81.1058 75.0956 73.6556C75.2021 73.6042 75.3283 73.6201 75.4228 73.6952C75.9235 74.1067 76.4477 74.5182 76.9759 74.9098C77.1572 75.0444 77.1454 75.3254 76.9483 75.4401C74.4572 76.8921 71.8675 78.1186 69.1438 79.1434C68.9665 79.2107 68.8876 79.4164 68.9744 79.5865C70.4761 82.4866 72.1907 85.2482 74.0787 87.8675C74.1576 87.9783 74.2994 88.0258 74.4296 87.9861C82.6006 85.4659 90.8859 81.6636 99.4393 75.4005C99.5142 75.3452 99.5615 75.262 99.5694 75.171C101.655 53.6633 96.077 34.9807 84.7842 18.4187C84.7566 18.3633 84.7094 18.3237 84.6542 18.3ZM33.4168 63.8395C28.4896 63.8395 24.4297 59.3291 24.4297 53.79C24.4297 48.2508 28.4108 43.7405 33.4168 43.7405C38.462 43.7405 42.4825 48.2904 42.4037 53.79C42.4037 59.3291 38.4225 63.8395 33.4168 63.8395ZM66.6448 63.8395C61.7177 63.8395 57.6579 59.3291 57.6579 53.79C57.6579 48.2508 61.6389 43.7405 66.6448 43.7405C71.6901 43.7405 75.7106 48.2904 75.6318 53.79C75.6318 59.3291 71.6901 63.8395 66.6448 63.8395Z" fill="white"/>
</svg>
