<svg width="100" height="100" viewBox="0 0 100 100" fill="none" xmlns="http://www.w3.org/2000/svg">
<path d="M13.4548 66.5699C20.4319 68.1223 30.3691 67.8797 41.0722 66.0388V54.3H28.5807V7H70.2193L53.5638 41.4H70.2193L58.7589 61.6887C84.1766 53.5727 94.6898 41.9434 93.4948 38.4699C93.1342 37.4029 90.8416 35.906 86.538 34.9485L86.4438 34.9276C84.9203 34.0155 83.3117 33.2394 81.6397 32.6098C77.8866 31.0424 74.2765 29.4991 70.8673 28.0159C86.0877 27.2085 97.3794 30.2374 99.6067 36.723C103.04 46.6993 83.6135 61.095 56.2201 68.8151C55.6323 68.9807 55.0456 69.142 54.4601 69.2989L41.0722 93V72.1813C20.1444 75.5621 3.17243 72.8481 0.394428 64.7588C-2.08433 57.562 7.31882 48.0903 23.0087 40.4722C20.7906 44.0029 18.3702 47.7353 15.7801 51.561C15.7423 51.6187 15.7059 51.6768 15.6698 51.7343C15.6218 51.8108 15.5744 51.8865 15.525 51.9591C8.6896 56.8292 5.83856 61.1518 6.49639 63.0559C6.85867 64.1156 9.15121 65.6124 13.4548 66.5699Z" fill="white"/>
</svg>
