<svg width="115" height="100" viewBox="0 0 115 100" fill="none" xmlns="http://www.w3.org/2000/svg">
<g clip-path="url(#clip0_3636_38)">
<path d="M15.4731 69.2674C23.4966 71.0724 34.9245 70.7904 47.2331 68.6498V55H32.8678V0H80.7522L61.5984 40H80.7522L67.5727 63.5916C96.8031 54.1542 108.893 40.6318 107.519 36.5929C107.104 35.3522 104.468 33.6117 99.5187 32.4983L99.4103 32.4739C97.6584 31.4133 95.8085 30.5109 93.8856 29.7788C89.5695 27.9563 85.4179 26.1617 81.4973 24.4371C99.0008 23.4983 111.986 27.0202 114.548 34.5616C118.496 46.162 96.1555 62.9012 64.6531 71.878C63.9771 72.0706 63.3024 72.2582 62.6292 72.4406L47.2331 100V75.7922C23.1661 79.7233 3.6483 76.5675 0.453592 67.1614C-2.39698 58.793 8.41664 47.7794 26.46 38.9212C23.9092 43.0267 21.1257 47.3666 18.1471 51.8151C18.1036 51.8822 18.0617 51.9498 18.0203 52.0167C17.9651 52.1056 17.9106 52.1936 17.8538 52.278C9.99304 57.9409 6.71435 62.9672 7.47084 65.1813C7.88747 66.4134 10.5239 68.154 15.4731 69.2674Z" fill="white"/>
</g>
<defs>
<clipPath id="clip0_3636_38">
<rect width="115" height="100" fill="white"/>
</clipPath>
</defs>
</svg>
