<svg width="70" height="100" viewBox="0 0 70 100" fill="none" xmlns="http://www.w3.org/2000/svg">
<g clip-path="url(#clip0_3327_60)">
<path fill-rule="evenodd" clip-rule="evenodd" d="M0 18.7095C0 8.37651 8.37625 0 18.7089 0H50.8111C61.1438 0 69.52 8.37651 69.52 18.7095C69.52 25.2524 66.1615 31.0109 61.0745 34.3549C66.1615 37.699 69.52 43.4575 69.52 50.0004C69.52 60.3334 61.1438 68.7099 50.8111 68.7099H50.4048C45.5608 68.7099 41.1467 66.8689 37.8241 63.8484V81.0873C37.8241 91.558 29.229 100 18.8098 100C8.50287 100 0 91.6491 0 81.2905C0 74.7478 3.3582 68.9896 8.44488 65.6454C3.3582 62.3013 0 56.543 0 50.0004C0 43.4575 3.35848 37.699 8.44553 34.3549C3.35848 31.0109 0 25.2524 0 18.7095ZM18.629 62.5812C18.6556 62.5811 18.6823 62.581 18.7089 62.581H31.6959V37.4194H18.7089C11.7608 37.4194 6.12827 43.0521 6.12827 50.0004C6.12827 56.9221 11.7177 62.5382 18.629 62.5812ZM37.8241 50.0004C37.8241 56.9487 43.4567 62.5814 50.4048 62.5814H50.8111C57.7592 62.5814 63.3917 56.9487 63.3917 50.0004C63.3917 43.0521 57.7592 37.4194 50.8111 37.4194H50.4048C43.4566 37.4194 37.8241 43.0521 37.8241 50.0004ZM18.6611 68.7098L18.629 68.7097C11.7177 68.7527 6.12827 74.3688 6.12827 81.2905C6.12827 88.2133 11.836 93.8715 18.8098 93.8715C25.8958 93.8715 31.6959 88.1222 31.6959 81.0873V68.7099H18.7089L18.6611 68.7098ZM6.12827 18.7095C6.12827 11.7612 11.7608 6.12847 18.7089 6.12847H31.6959V31.2905H18.7089C11.7608 31.2905 6.12827 25.6578 6.12827 18.7095ZM63.3917 18.7095C63.3917 25.6578 57.7592 31.2905 50.8111 31.2905H37.8241V6.12847H50.8111C57.7592 6.12847 63.3917 11.7612 63.3917 18.7095Z" fill="white"/>
</g>
<defs>
<clipPath id="clip0_3327_60">
<rect width="69.52" height="100" fill="white"/>
</clipPath>
</defs>
</svg>
