<svg width="104" height="100" viewBox="0 0 104 100" fill="none" xmlns="http://www.w3.org/2000/svg">
<g clip-path="url(#clip0_3327_72)">
<path d="M0.52002 51.2657C0.52002 22.9521 23.4761 0 51.7857 0C80.0982 0 103.051 22.9521 103.051 51.2657C103.051 73.909 88.3804 93.1186 68.022 99.9051C65.4231 100.409 64.5003 98.8099 64.5003 97.4457C64.5003 96.8856 64.5069 95.9042 64.5156 94.5922C64.5333 91.948 64.5598 87.9614 64.5598 83.3769C64.5598 78.5943 62.9214 75.4742 61.0828 73.8833C72.4983 72.6143 84.4912 68.2784 84.4912 48.5883C84.4912 42.9911 82.5021 38.418 79.2152 34.828C79.7476 33.5365 81.503 28.3225 78.7126 21.261C78.7126 21.261 74.4137 19.8831 64.6286 26.516C60.5315 25.3798 56.1425 24.8104 51.7857 24.7911C47.4289 24.8104 43.0432 25.3798 38.9541 26.516C29.1573 19.8831 24.8524 21.261 24.8524 21.261C22.0689 28.3225 23.8235 33.5365 24.3558 34.828C21.0762 38.418 19.0735 42.9915 19.0735 48.5883C19.0735 68.2318 31.0438 72.6276 42.4304 73.9243C40.9645 75.2045 39.6356 77.4657 39.1757 80.7795C36.2502 82.0891 28.8296 84.3551 24.2573 76.5176C24.2573 76.5176 21.5466 71.5963 16.3985 71.2344C16.3985 71.2344 11.3968 71.1693 16.0479 74.3513C16.0479 74.3513 19.408 75.9266 21.74 81.8522C21.74 81.8522 24.7495 91.0021 39.012 87.901C39.0239 90.2438 39.0436 92.5134 39.059 94.289C39.0718 95.7599 39.0816 96.8919 39.0816 97.4457C39.0816 98.7998 38.1407 100.386 35.5788 99.9119C15.2092 93.1331 0.52002 73.9166 0.52002 51.2657Z" fill="white"/>
<path d="M18.8422 73.1859C19.2069 73.3604 19.6082 73.284 19.7207 73.0295C19.8498 72.7738 19.6375 72.4232 19.2648 72.2563C18.8937 72.0802 18.4924 72.1534 18.3819 72.4155C18.2612 72.6712 18.4703 73.0186 18.8422 73.1859Z" fill="white"/>
<path d="M21.1955 75.0426C21.52 75.4009 21.9981 75.5062 22.2425 75.2795C22.4982 75.0503 22.4327 74.5758 22.0974 74.2144C21.7612 73.8565 21.2977 73.7508 21.0456 73.9772C20.7975 74.2075 20.8602 74.6852 21.1955 75.0426Z" fill="white"/>
<path d="M22.8271 77.716C23.1444 78.1719 23.6582 78.3766 23.9726 78.1583C24.2939 77.9347 24.2935 77.3883 23.9798 76.9247C23.6582 76.4724 23.1524 76.2754 22.834 76.4945C22.5131 76.7136 22.5131 77.2604 22.8271 77.716Z" fill="white"/>
<path d="M25.5805 81.2964C26.0187 81.7194 26.617 81.8022 26.8981 81.4926C27.1976 81.1862 27.0621 80.5952 26.617 80.1827C26.1755 79.7633 25.5736 79.6761 25.2894 79.9865C25.0075 80.2965 25.1326 80.8831 25.5805 81.2964Z" fill="white"/>
<path d="M29.3985 83.0317C29.9791 83.2022 30.5557 83.0197 30.6791 82.6184C30.7997 82.2099 30.4198 81.7431 29.8408 81.5682C29.2558 81.3857 28.6768 81.5759 28.5562 81.9799C28.4392 82.3856 28.8187 82.856 29.3985 83.0317Z" fill="white"/>
<path d="M33.8953 83.8769C34.5048 83.8692 34.9973 83.5186 34.9828 83.0957C34.9828 82.6755 34.4835 82.3358 33.8739 82.3478C33.2612 82.3579 32.7799 82.7053 32.7799 83.1323C32.7864 83.548 33.2821 83.8902 33.8953 83.8769Z" fill="white"/>
<path d="M38.2545 83.8825C38.8596 83.7699 39.2834 83.3462 39.2102 82.9336C39.133 82.5143 38.5906 82.2662 37.9843 82.3715C37.3904 82.4813 36.9586 82.9047 37.0326 83.3277C37.1086 83.7366 37.6594 83.9911 38.2545 83.8825Z" fill="white"/>
</g>
<defs>
<clipPath id="clip0_3327_72">
<rect width="102.53" height="100" fill="white" transform="translate(0.52002)"/>
</clipPath>
</defs>
</svg>
