<svg width="100" height="100" viewBox="0 0 100 100" fill="none" xmlns="http://www.w3.org/2000/svg">
<g clip-path="url(#clip0_3327_72)">
<path d="M0 51.2657C0 22.9521 22.3894 0 50.0002 0C77.6137 0 100 22.9521 100 51.2657C100 73.909 85.6915 93.1186 65.8357 99.9051C63.3009 100.409 62.4009 98.8099 62.4009 97.4457C62.4009 96.8856 62.4073 95.9042 62.4158 94.5922C62.433 91.9481 62.459 87.9614 62.459 83.3769C62.459 78.5943 60.861 75.4742 59.0677 73.8833C70.2014 72.6143 81.8983 68.2784 81.8983 48.5883C81.8983 42.9912 79.9584 38.418 76.7526 34.828C77.2718 33.5365 78.9839 28.3225 76.2624 21.261C76.2624 21.261 72.0696 19.8831 62.526 26.516C58.5301 25.3798 54.2495 24.8104 50.0002 24.7911C45.7509 24.8104 41.4734 25.3798 37.4853 26.516C27.9304 19.8831 23.7317 21.261 23.7317 21.261C21.0169 28.3225 22.7282 33.5365 23.2474 34.828C20.0487 38.418 18.0954 42.9916 18.0954 48.5883C18.0954 68.2318 29.7703 72.6276 40.8758 73.9243C39.4461 75.2045 38.15 77.4657 37.7014 80.7795C34.8482 82.0891 27.6108 84.3551 23.1513 76.5176C23.1513 76.5176 20.5075 71.5963 15.4865 71.2344C15.4865 71.2344 10.6083 71.1693 15.1446 74.3513C15.1446 74.3513 18.4217 75.9266 20.6961 81.8523C20.6961 81.8523 23.6313 91.0021 37.5418 87.901C37.5534 90.2438 37.5726 92.5134 37.5876 94.289C37.6001 95.7599 37.6096 96.8919 37.6096 97.4457C37.6096 98.7998 36.692 100.386 34.1933 99.912C14.3266 93.1331 0 73.9166 0 51.2657Z" fill="white"/>
<path d="M17.8699 73.1859C18.2256 73.3604 18.6169 73.284 18.7267 73.0295C18.8526 72.7738 18.6456 72.4232 18.2821 72.2563C17.9201 72.0802 17.5287 72.1534 17.4209 72.4155C17.3033 72.6713 17.5072 73.0186 17.8699 73.1859Z" fill="white"/>
<path d="M20.1651 75.0427C20.4816 75.4009 20.9478 75.5062 21.1863 75.2795C21.4357 75.0503 21.3717 74.5758 21.0447 74.2144C20.7169 73.8565 20.2647 73.7508 20.0189 73.9772C19.7769 74.2076 19.8381 74.6852 20.1651 75.0427Z" fill="white"/>
<path d="M21.7564 77.716C22.0658 78.1719 22.567 78.3766 22.8737 78.1583C23.187 77.9347 23.1866 77.3883 22.8807 76.9247C22.567 76.4724 22.0737 76.2754 21.7631 76.4945C21.4502 76.7136 21.4502 77.2605 21.7564 77.716Z" fill="white"/>
<path d="M24.4418 81.2964C24.8693 81.7194 25.4528 81.8022 25.7269 81.4926C26.019 81.1863 25.8869 80.5952 25.4528 80.1827C25.0222 79.7633 24.4352 79.6761 24.1579 79.9865C23.883 80.2965 24.005 80.8831 24.4418 81.2964Z" fill="white"/>
<path d="M28.1656 83.0317C28.7319 83.2022 29.2942 83.0197 29.4146 82.6184C29.5322 82.2099 29.1617 81.7431 28.597 81.5682C28.0264 81.3857 27.4617 81.5759 27.3441 81.9799C27.23 82.3856 27.6002 82.856 28.1656 83.0317Z" fill="white"/>
<path d="M32.5514 83.8769C33.1458 83.8693 33.6262 83.5186 33.6121 83.0957C33.6121 82.6755 33.1251 82.3358 32.5306 82.3478C31.9329 82.3579 31.4635 82.7053 31.4635 83.1323C31.4698 83.548 31.9533 83.8902 32.5514 83.8769Z" fill="white"/>
<path d="M36.803 83.8825C37.3931 83.7699 37.8065 83.3462 37.7351 82.9336C37.6598 82.5143 37.1308 82.2662 36.5394 82.3716C35.9603 82.4813 35.5391 82.9047 35.6112 83.3277C35.6854 83.7366 36.2226 83.9911 36.803 83.8825Z" fill="white"/>
</g>
<defs>
<clipPath id="clip0_3327_72">
<rect width="100" height="100" fill="white"/>
</clipPath>
</defs>
</svg>
