<svg width="88" height="100" viewBox="0 0 88 100" fill="none" xmlns="http://www.w3.org/2000/svg">
<g clip-path="url(#clip0_3328_24)">
<path d="M40.1739 98.9894C41.3582 99.6325 42.6335 100 44 100C45.3665 100 46.7329 99.6325 47.8261 99.1731L84.174 77.9514C86.5425 76.5733 88 74.001 88 71.2448V28.893C88 26.1369 86.5425 23.5645 84.174 22.1864L47.8261 0.964628C45.5487 -0.321542 42.4514 -0.321542 40.1739 0.964628L3.82609 22.1864C1.45756 23.5645 0 26.1369 0 28.893V71.2448C0 74.001 1.45756 76.5733 3.82609 77.9514L13.3913 83.4634C18.0373 85.7602 19.677 85.7602 21.7722 85.7602C28.6046 85.7602 32.5218 81.5343 32.5218 74.2765V32.4759C32.5218 31.8327 31.9752 31.3735 31.4286 31.3735H26.7826C26.1449 31.3735 25.6894 31.9247 25.6894 32.4759V74.2765C25.6894 77.492 22.3188 80.7074 16.9441 77.9514L7.01449 72.1635C6.6501 71.9798 6.4679 71.5205 6.4679 71.153V28.801C6.4679 28.4336 6.6501 27.9743 7.01449 27.7906L43.3623 6.66054C43.6356 6.47681 44.0912 6.47681 44.4555 6.66054L80.8033 27.7906C81.1678 27.9743 81.3499 28.3418 81.3499 28.801V71.153C81.3499 71.6123 81.1678 71.9798 80.8033 72.1635L44.4555 93.3854C44.1822 93.5691 43.7267 93.5691 43.3623 93.3854L34.0705 87.7814C33.7972 87.5977 33.4327 87.5057 33.1594 87.6895C30.6087 89.1594 30.1532 89.3431 27.6936 90.17C27.147 90.3537 26.236 90.7212 28.058 91.7318L40.1739 98.9894Z" fill="white"/>
<path d="M36.0743 57.2809C36.0743 63.5281 39.3538 70.8776 55.2958 70.8776C66.774 70.8776 73.4242 66.2841 73.4242 58.1996C73.4242 50.2988 68.1405 48.1858 56.9356 46.7159C45.6394 45.2459 44.4552 44.4192 44.4552 41.755C44.4552 39.55 45.4572 36.6102 53.8383 36.6102C61.3082 36.6102 64.1323 38.2639 65.2253 43.3168C65.3165 43.776 65.7719 44.1435 66.2274 44.1435H71.0556C71.3289 44.1435 71.6022 43.9598 71.7844 43.776C71.9666 43.5005 72.0577 43.2248 72.0577 42.9492C71.3289 34.1297 65.5898 30.0876 53.9293 30.0876C43.5443 30.0876 37.3496 34.4972 37.3496 41.9387C37.3496 49.9314 43.5443 52.1362 53.4738 53.1468C65.4076 54.341 66.3185 56.0866 66.3185 58.4751C66.3185 62.6093 63.0391 64.3548 55.3869 64.3548C45.7305 64.3548 43.6353 61.9662 42.9065 57.0972C42.9065 56.546 42.4511 56.1784 41.9045 56.1784H37.1674C36.5297 56.1784 36.0743 56.7297 36.0743 57.2809Z" fill="white"/>
</g>
<defs>
<clipPath id="clip0_3328_24">
<rect width="88" height="100" fill="white"/>
</clipPath>
</defs>
</svg>
