<svg width="100" height="100" viewBox="0 0 100 100" fill="none" xmlns="http://www.w3.org/2000/svg">
<g clip-path="url(#clip0_3688_35)">
<path d="M80 87.125V93.25C80 94.6667 79.5208 95.8542 78.5625 96.8125C77.6042 97.7708 76.4167 98.25 75 98.25C73.5833 98.25 72.3958 97.7708 71.4375 96.8125C70.4792 95.8542 70 94.6667 70 93.25V77.5C70 75.4167 70.7292 73.6458 72.1875 72.1875C73.6458 70.7292 75.4167 70 77.5 70H93.25C94.6667 70 95.8542 70.4792 96.8125 71.4375C97.7708 72.3958 98.25 73.5833 98.25 75C98.25 76.4167 97.7708 77.6042 96.8125 78.5625C95.8542 79.5208 94.6667 80 93.25 80H87L98.25 91.25C99.1667 92.1667 99.625 93.3125 99.625 94.6875C99.625 96.0625 99.1667 97.25 98.25 98.25C97.25 99.25 96.0625 99.75 94.6875 99.75C93.3125 99.75 92.125 99.25 91.125 98.25L80 87.125ZM50 100C43.0833 100 36.5833 98.6875 30.5 96.0625C24.4167 93.4375 19.125 89.875 14.625 85.375C10.125 80.875 6.5625 75.5833 3.9375 69.5C1.3125 63.4167 0 56.9167 0 50C0 43.0833 1.3125 36.5833 3.9375 30.5C6.5625 24.4167 10.125 19.125 14.625 14.625C19.125 10.125 24.4167 6.5625 30.5 3.9375C36.5833 1.3125 43.0833 0 50 0C56.9167 0 63.4167 1.3125 69.5 3.9375C75.5833 6.5625 80.875 10.125 85.375 14.625C89.875 19.125 93.4375 24.4167 96.0625 30.5C98.6875 36.5833 100 43.0833 100 50C100 50.8333 99.9792 51.75 99.9375 52.75C99.8958 53.75 99.8333 54.6667 99.75 55.5C99.5833 56.9167 99 58.0208 98 58.8125C97 59.6042 95.75 60 94.25 60C92.9167 60 91.7917 59.4167 90.875 58.25C89.9583 57.0833 89.5833 55.8333 89.75 54.5C89.9167 53.6667 90 52.9167 90 52.25V50C90 48.3333 89.8958 46.6667 89.6875 45C89.4792 43.3333 89.1667 41.6667 88.75 40H71.75C72 41.6667 72.1875 43.3333 72.3125 45C72.4375 46.6667 72.5 48.3333 72.5 50V52.6875C72.5 53.6458 72.4583 54.5417 72.375 55.375C72.2083 56.7917 71.625 57.9167 70.625 58.75C69.625 59.5833 68.4167 60 67 60C65.6667 60 64.5208 59.4583 63.5625 58.375C62.6042 57.2917 62.2083 56.0833 62.375 54.75C62.4583 53.9167 62.5 53.125 62.5 52.375V50C62.5 48.3333 62.4375 46.6667 62.3125 45C62.1875 43.3333 62 41.6667 61.75 40H38.25C38 41.6667 37.8125 43.3333 37.6875 45C37.5625 46.6667 37.5 48.3333 37.5 50C37.5 51.6667 37.5625 53.3333 37.6875 55C37.8125 56.6667 38 58.3333 38.25 60H50C51.4167 60 52.6042 60.4792 53.5625 61.4375C54.5208 62.3958 55 63.5833 55 65C55 66.4167 54.5208 67.6042 53.5625 68.5625C52.6042 69.5208 51.4167 70 50 70H40.5C41.5 73.5833 42.7917 77.0208 44.375 80.3125C45.9583 83.6042 47.8333 86.75 50 89.75C50.8333 89.75 51.6667 89.7708 52.5 89.8125C53.3333 89.8542 54.1667 89.8333 55 89.75C56.4167 89.5833 57.5833 89.9375 58.5 90.8125C59.4167 91.6875 59.875 92.8333 59.875 94.25C59.875 95.75 59.5 97 58.75 98C58 99 56.9167 99.5833 55.5 99.75C54.6667 99.8333 53.75 99.8958 52.75 99.9375C51.75 99.9792 50.8333 100 50 100ZM11.25 60H28.25C28 58.3333 27.8125 56.6667 27.6875 55C27.5625 53.3333 27.5 51.6667 27.5 50C27.5 48.3333 27.5625 46.6667 27.6875 45C27.8125 43.3333 28 41.6667 28.25 40H11.25C10.8333 41.6667 10.5208 43.3333 10.3125 45C10.1042 46.6667 10 48.3333 10 50C10 51.6667 10.1042 53.3333 10.3125 55C10.5208 56.6667 10.8333 58.3333 11.25 60ZM37 87.75C35.5 84.9167 34.1875 82.0208 33.0625 79.0625C31.9375 76.1042 31 73.0833 30.25 70H15.5C17.9167 74.25 20.9583 77.8958 24.625 80.9375C28.2917 83.9792 32.4167 86.25 37 87.75ZM15.5 30H30.25C31 26.9167 31.9375 23.8958 33.0625 20.9375C34.1875 17.9792 35.5 15.0833 37 12.25C32.4167 13.75 28.2917 16.0208 24.625 19.0625C20.9583 22.1042 17.9167 25.75 15.5 30ZM40.5 30H59.5C58.5 26.4167 57.2083 22.9792 55.625 19.6875C54.0417 16.3958 52.1667 13.25 50 10.25C47.8333 13.25 45.9583 16.3958 44.375 19.6875C42.7917 22.9792 41.5 26.4167 40.5 30ZM69.75 30H84.5C82.0833 25.75 79.0417 22.1042 75.375 19.0625C71.7083 16.0208 67.5833 13.75 63 12.25C64.5 15.0833 65.8125 17.9792 66.9375 20.9375C68.0625 23.8958 69 26.9167 69.75 30Z" fill="white"/>
</g>
<defs>
<clipPath id="clip0_3688_35">
<rect width="100" height="100" fill="white"/>
</clipPath>
</defs>
</svg>
