<svg width="100" height="100" viewBox="0 0 100 100" fill="none" xmlns="http://www.w3.org/2000/svg">
<path d="M38.0952 50C38.0952 43.4262 43.4252 38.097 50 38.097C56.5748 38.097 61.9048 43.4262 61.9048 50C61.9048 56.5738 56.5748 61.903 50 61.903C43.4252 61.903 38.0952 56.5738 38.0952 50Z" fill="white"/>
<path fill-rule="evenodd" clip-rule="evenodd" d="M50 13.1063C49.2249 12.4836 48.4504 11.8935 47.6782 11.3373C39.8786 5.71861 31.4414 2.98682 25 6.70519C18.5586 10.4236 16.7061 19.0953 17.673 28.6582C17.7687 29.605 17.8926 30.5707 18.0443 31.5531C17.1175 31.913 16.2191 32.2885 15.3512 32.6791C6.58479 36.6233 0 42.5633 0 50C0 57.4367 6.5848 63.3767 15.3512 67.3209C16.2191 67.7115 17.1175 68.087 18.0443 68.4469C17.8926 69.4293 17.7687 70.395 17.673 71.3418C16.7062 80.9047 18.5586 89.5764 25 93.2948C31.4414 97.0132 39.8787 94.2814 47.6782 88.6627C48.4504 88.1065 49.2249 87.5164 50 86.8937C50.7751 87.5164 51.5496 88.1065 52.3218 88.6627C60.1214 94.2814 68.5586 97.0132 75 93.2948C81.4414 89.5764 83.2939 80.9047 82.327 71.3418C82.2313 70.395 82.1074 69.4293 81.9557 68.4469C82.8825 68.087 83.7809 67.7115 84.6488 67.3209C93.4152 63.3767 100 57.4367 100 50C100 42.5633 93.4152 36.6233 84.6488 32.6791C83.7809 32.2885 82.8825 31.913 81.9557 31.5532C82.1074 30.5707 82.2313 29.605 82.327 28.6582C83.2939 19.0953 81.4414 10.4236 75 6.7052C68.5586 2.98682 60.1214 5.71862 52.3218 11.3373C51.5496 11.8935 50.7751 12.4836 50 13.1063ZM44.8946 15.2002C37.3602 9.77265 31.1887 8.63043 27.381 10.8285C23.5732 13.0266 21.4768 18.9416 22.4107 28.1793C22.4703 28.7682 22.5419 29.3665 22.6257 29.9736C26.9161 28.6654 31.6655 27.661 36.7291 27.0175C39.8182 22.9547 43.0629 19.3445 46.3412 16.2835C45.8572 15.9074 45.3749 15.5462 44.8946 15.2002ZM50 19.3849C47.7618 21.4396 45.5183 23.7884 43.3199 26.3986C45.5069 26.2636 47.737 26.194 50 26.194C52.263 26.194 54.4931 26.2636 56.6801 26.3986C54.4817 23.7884 52.2383 21.4396 50 19.3849ZM63.2709 27.0175C60.1818 22.9547 56.9371 19.3445 53.6588 16.2835C54.1428 15.9074 54.6251 15.5462 55.1054 15.2002C62.6398 9.77265 68.8113 8.63043 72.6191 10.8285C76.4268 13.0266 78.5232 18.9416 77.5893 28.1793C77.5297 28.7682 77.4581 29.3665 77.3743 29.9736C73.0839 28.6654 68.3345 27.661 63.2709 27.0175ZM60.6775 31.5088C57.2581 31.1476 53.6835 30.9552 50 30.9552C46.3165 30.9552 42.7419 31.1476 39.3225 31.5088C37.2999 34.289 35.3461 37.288 33.5043 40.4776C31.6625 43.6672 30.0418 46.8585 28.645 50C30.0418 53.1415 31.6625 56.3328 33.5043 59.5224C35.3461 62.712 37.2999 65.711 39.3225 68.4912C42.7419 68.8525 46.3165 69.0448 50 69.0448C53.6835 69.0448 57.2581 68.8525 60.6775 68.4912C62.7001 65.711 64.654 62.712 66.4957 59.5224C68.3375 56.3328 69.9582 53.1415 71.355 50C69.9582 46.8585 68.3375 43.6672 66.4957 40.4776C64.6539 37.288 62.7001 34.289 60.6775 31.5088ZM73.7825 43.9836C72.806 42.0223 71.7511 40.0565 70.6196 38.097C69.4882 36.1375 68.3129 34.2412 67.1024 32.415C70.4625 33.0135 73.6186 33.7817 76.5174 34.6924C75.8569 37.6579 74.9442 40.7749 73.7825 43.9836ZM73.7825 56.0164C72.806 57.9777 71.7511 59.9435 70.6197 61.903C69.4882 63.8625 68.3129 65.7588 67.1024 67.585C70.4625 66.9865 73.6186 66.2183 76.5174 65.3076C75.8569 62.3421 74.9442 59.2252 73.7825 56.0164ZM81.0331 63.6901C80.021 59.3209 78.5163 54.7063 76.5419 50C78.5163 45.2937 80.021 40.6791 81.0331 36.3099C81.6008 36.5409 82.1549 36.778 82.6947 37.0209C91.163 40.8311 95.2381 45.6038 95.2381 50C95.2381 54.3962 91.163 59.1689 82.6947 62.9791C82.1549 63.222 81.6008 63.4591 81.0331 63.6901ZM77.3743 70.0264C73.0839 71.3346 68.3345 72.339 63.2709 72.9825C60.1818 77.0453 56.9371 80.6555 53.6588 83.7165C54.1428 84.0926 54.6251 84.4538 55.1054 84.7998C62.6398 90.2274 68.8113 91.3696 72.619 89.1715C76.4268 86.9734 78.5232 81.0584 77.5893 71.8207C77.5297 71.2318 77.4581 70.6335 77.3743 70.0264ZM50 80.6151C52.2383 78.5604 54.4817 76.2116 56.6801 73.6014C54.4931 73.7364 52.263 73.806 50 73.806C47.737 73.806 45.5069 73.7364 43.3199 73.6014C45.5183 76.2116 47.7618 78.5604 50 80.6151ZM32.8976 67.585C31.6871 65.7588 30.5118 63.8625 29.3803 61.903C28.2489 59.9435 27.194 57.9777 26.2175 56.0164C25.0558 59.2252 24.1431 62.3421 23.4826 65.3076C26.3814 66.2183 29.5375 66.9865 32.8976 67.585ZM22.6257 70.0264C26.9162 71.3346 31.6655 72.339 36.7291 72.9825C39.8182 77.0453 43.0629 80.6555 46.3412 83.7165C45.8572 84.0926 45.3749 84.4538 44.8946 84.7998C37.3602 90.2274 31.1887 91.3696 27.381 89.1715C23.5732 86.9734 21.4768 81.0584 22.4107 71.8207C22.4703 71.2318 22.5419 70.6335 22.6257 70.0264ZM18.9669 63.6901C19.979 59.3209 21.4837 54.7063 23.4581 50C21.4837 45.2937 19.979 40.6791 18.9669 36.3099C18.3992 36.5409 17.8451 36.778 17.3053 37.0209C8.837 40.8311 4.7619 45.6038 4.7619 50C4.7619 54.3962 8.837 59.1689 17.3053 62.9791C17.8451 63.222 18.3992 63.4591 18.9669 63.6901ZM23.4826 34.6924C24.1431 37.6579 25.0558 40.7749 26.2175 43.9836C27.194 42.0223 28.2489 40.0565 29.3804 38.097C30.5118 36.1375 31.6871 34.2413 32.8976 32.415C29.5375 33.0135 26.3814 33.7817 23.4826 34.6924Z" fill="white"/>
</svg>
