<svg width="111" height="100" viewBox="0 0 111 100" fill="none" xmlns="http://www.w3.org/2000/svg">
<g clip-path="url(#clip0_3636_51)">
<path d="M42.2857 50C42.2857 42.6957 48.202 36.7745 55.5 36.7745C62.7981 36.7745 68.7143 42.6957 68.7143 50C68.7143 57.3043 62.7981 63.2255 55.5 63.2255C48.202 63.2255 42.2857 57.3043 42.2857 50Z" fill="white"/>
<path fill-rule="evenodd" clip-rule="evenodd" d="M55.5 9.00699C54.6396 8.31516 53.78 7.6595 52.9228 7.0414C44.2653 0.79846 34.8999 -2.23687 27.75 1.89466C20.6001 6.02619 18.5438 15.6614 19.617 26.2869C19.7233 27.3389 19.8608 28.4118 20.0292 29.5035C19.0004 29.9033 18.0032 30.3206 17.0398 30.7545C7.30912 35.1371 0 41.7369 0 50C0 58.2631 7.30912 64.863 17.0398 69.2455C18.0032 69.6794 19.0004 70.0967 20.0292 70.4965C19.8608 71.5882 19.7233 72.6611 19.617 73.7131C18.5438 84.3386 20.6001 93.9738 27.75 98.1053C34.8999 102.237 44.2653 99.2015 52.9228 92.9586C53.78 92.3405 54.6396 91.6848 55.5 90.993C56.3604 91.6848 57.22 92.3405 58.0772 92.9586C66.7347 99.2015 76.1001 102.237 83.25 98.1053C90.3999 93.9738 92.4562 84.3386 91.383 73.7131C91.2767 72.6611 91.1392 71.5882 90.9708 70.4965C91.9996 70.0967 92.9968 69.6794 93.9602 69.2455C103.691 64.863 111 58.2631 111 50C111 41.7369 103.691 35.1371 93.9602 30.7545C92.9968 30.3206 91.9996 29.9033 90.9708 29.5035C91.1392 28.4118 91.2768 27.3389 91.383 26.2869C92.4562 15.6614 90.3999 6.02619 83.25 1.89466C76.1001 -2.23686 66.7347 0.798463 58.0772 7.0414C57.22 7.6595 56.3604 8.31516 55.5 9.00699ZM49.833 11.3336C41.4698 5.30294 34.6195 4.03381 30.3929 6.47612C26.1663 8.91843 23.8392 15.4906 24.8759 25.7548C24.942 26.4091 25.0216 27.0739 25.1145 27.7484C29.8769 26.2949 35.1487 25.1789 40.7693 24.4639C44.1982 19.9497 47.7998 15.9383 51.4387 12.5372C50.9015 12.1194 50.3661 11.718 49.833 11.3336ZM55.5 15.9832C53.0156 18.2662 50.5253 20.876 48.0851 23.7762C50.5127 23.6262 52.9881 23.5489 55.5 23.5489C58.0119 23.5489 60.4873 23.6262 62.915 23.7762C60.4747 20.876 57.9845 18.2662 55.5 15.9832ZM70.2307 24.4639C66.8018 19.9497 63.2002 15.9383 59.5613 12.5372C60.0985 12.1194 60.6339 11.718 61.167 11.3336C69.5302 5.30294 76.3805 4.03381 80.6072 6.47612C84.8338 8.91843 87.1608 15.4907 86.1241 25.7548C86.058 26.4092 85.9785 27.0739 85.8855 27.7484C81.1231 26.2949 75.8513 25.1789 70.2307 24.4639ZM67.352 29.4542C63.5565 29.0528 59.5887 28.8391 55.5 28.8391C51.4113 28.8391 47.4435 29.0528 43.648 29.4542C41.4029 32.5434 39.2341 35.8756 37.1898 39.4196C35.1454 42.9635 33.3464 46.5095 31.796 50C33.3464 53.4906 35.1454 57.0365 37.1898 60.5804C39.2341 64.1244 41.4029 67.4566 43.648 70.5458C47.4435 70.9472 51.4113 71.1609 55.5 71.1609C59.5887 71.1609 63.5565 70.9472 67.352 70.5458C69.5971 67.4566 71.7659 64.1244 73.8103 60.5804C75.8546 57.0365 77.6536 53.4906 79.204 50C77.6536 46.5095 75.8546 42.9635 73.8103 39.4196C71.7659 35.8756 69.5971 32.5434 67.352 29.4542ZM81.8986 43.3151C80.8146 41.1359 79.6438 38.9517 78.3878 36.7745C77.1319 34.5972 75.8273 32.4903 74.4837 30.4611C78.2134 31.1261 81.7167 31.9797 84.9344 32.9916C84.2012 36.2865 83.188 39.7498 81.8986 43.3151ZM81.8986 56.6849C80.8146 58.8641 79.6438 61.0483 78.3878 63.2255C77.1319 65.4028 75.8273 67.5097 74.4837 69.5389C78.2134 68.8739 81.7167 68.0203 84.9344 67.0084C84.2011 63.7135 83.188 60.2502 81.8986 56.6849ZM89.9468 65.2112C88.8233 60.3566 87.1531 55.2292 84.9615 50C87.1531 44.7708 88.8233 39.6434 89.9468 34.7888C90.5769 35.0455 91.1919 35.3089 91.7911 35.5788C101.191 39.8123 105.714 45.1154 105.714 50C105.714 54.8846 101.191 60.1877 91.7911 64.4212C91.1919 64.6911 90.5769 64.9545 89.9468 65.2112ZM85.8855 72.2516C81.1231 73.7051 75.8513 74.8211 70.2307 75.5361C66.8018 80.0504 63.2002 84.0617 59.5613 87.4628C60.0985 87.8806 60.6339 88.282 61.167 88.6664C69.5302 94.6971 76.3805 95.9662 80.6071 93.5239C84.8338 91.0816 87.1608 84.5093 86.1241 74.2452C86.058 73.5909 85.9785 72.9261 85.8855 72.2516ZM55.5 84.0168C57.9845 81.7338 60.4747 79.124 62.915 76.2238C60.4873 76.3738 58.0119 76.4511 55.5 76.4511C52.9881 76.4511 50.5127 76.3738 48.0851 76.2238C50.5253 79.124 53.0156 81.7338 55.5 84.0168ZM36.5163 69.5389C35.1727 67.5097 33.8681 65.4028 32.6122 63.2255C31.3562 61.0483 30.1854 58.8641 29.1014 56.6849C27.812 60.2502 26.7989 63.7135 26.0657 67.0084C29.2833 68.0203 32.7866 68.8739 36.5163 69.5389ZM25.1145 72.2516C29.8769 73.7051 35.1487 74.8212 40.7693 75.5361C44.1982 80.0504 47.7998 84.0617 51.4387 87.4628C50.9015 87.8806 50.3661 88.282 49.833 88.6664C41.4699 94.6971 34.6195 95.9662 30.3929 93.5239C26.1663 91.0816 23.8392 84.5094 24.8759 74.2452C24.942 73.5909 25.0216 72.9261 25.1145 72.2516ZM21.0532 65.2112C22.1767 60.3566 23.8469 55.2292 26.0385 50C23.8469 44.7708 22.1767 39.6434 21.0532 34.7888C20.4231 35.0455 19.8081 35.3089 19.2089 35.5788C9.80907 39.8123 5.28571 45.1154 5.28571 50C5.28571 54.8846 9.80907 60.1877 19.2089 64.4212C19.8081 64.6911 20.4231 64.9545 21.0532 65.2112ZM26.0657 32.9916C26.7989 36.2865 27.812 39.7498 29.1014 43.3151C30.1854 41.1359 31.3562 38.9517 32.6122 36.7745C33.8682 34.5972 35.1727 32.4903 36.5163 30.4611C32.7866 31.1261 29.2833 31.9797 26.0657 32.9916Z" fill="white"/>
</g>
<defs>
<clipPath id="clip0_3636_51">
<rect width="111" height="100" fill="white"/>
</clipPath>
</defs>
</svg>
