<svg width="83" height="100" viewBox="0 0 83 100" fill="none" xmlns="http://www.w3.org/2000/svg">
<g clip-path="url(#clip0_3690_55)">
<path fill-rule="evenodd" clip-rule="evenodd" d="M36.9247 4.44982C50.1505 -3.99827 68.4437 -0.0590448 77.7056 13.2309H77.7101C79.9081 16.3153 81.4694 19.8087 82.3024 23.5062C83.1354 27.2037 83.2234 31.0308 82.561 34.7628C81.9192 38.3264 80.5638 41.7227 78.5766 44.7466C81.4755 50.2924 82.4469 56.649 81.3374 62.8106C80.6831 66.4691 79.2744 69.9504 77.2014 73.0318C75.1285 76.1132 72.4368 78.727 69.2987 80.7059L46.0699 95.5486C32.8459 103.999 14.5518 100.059 5.28991 86.7674C3.09238 83.6829 1.53127 80.1894 0.698131 76.492C-0.135012 72.7946 -0.223421 68.9677 0.438089 65.2356C1.08025 61.6714 2.4366 58.2747 4.42517 55.2509C1.52356 49.7063 0.549529 43.3498 1.65728 37.1878C2.31248 33.529 3.7221 30.0475 5.796 26.9661C7.86989 23.8847 10.5624 21.2711 13.7013 19.2925L36.9247 4.44982ZM23.9968 87.835C27.5585 89.1643 31.4396 89.3612 35.116 88.3991C36.7955 87.947 38.3964 87.2387 39.863 86.2988L63.2265 71.3133C65.1243 70.1109 66.7522 68.5231 68.006 66.6515C69.2598 64.7798 70.1121 62.6654 70.5083 60.4434C70.9084 58.1769 70.8548 55.8528 70.3508 53.6075C69.8468 51.3621 68.9024 49.2407 67.5732 47.3677C65.4082 44.2254 62.3376 41.8277 58.776 40.4984C55.2144 39.1691 51.3334 38.9723 47.6571 39.9345C45.9775 40.3857 44.3765 41.0937 42.9101 42.0338L33.9964 47.7528C33.5533 48.0352 33.0701 48.248 32.5633 48.384C31.4553 48.6733 30.2858 48.6134 29.2127 48.2124C28.1396 47.8113 27.2145 47.0885 26.5624 46.1413C26.1623 45.5762 25.8782 44.9365 25.7265 44.2596C25.5749 43.5827 25.5588 42.8821 25.6792 42.1988C25.7986 41.5296 26.0554 40.8928 26.4331 40.3292C26.8108 39.7656 27.3011 39.2874 27.8727 38.9254L51.2398 23.9317C51.6828 23.649 52.166 23.4362 52.6729 23.3005C53.7807 23.0105 54.9502 23.0698 56.0234 23.4706C57.0966 23.8714 58.0218 24.5942 58.6738 25.5414C59.3875 26.5588 59.7212 27.7974 59.6161 29.0384L59.5355 29.9113L60.4043 30.1764C63.6875 31.1744 66.7772 32.7298 69.5401 34.7755L70.7367 35.6583L71.1765 34.3056C71.4121 33.5873 71.5988 32.8537 71.7354 32.1098C72.1352 29.8434 72.0815 27.5193 71.5775 25.274C71.0735 23.0287 70.1293 20.9073 68.8003 19.0342C66.635 15.8919 63.5642 13.4942 60.0025 12.165C56.4408 10.8357 52.5597 10.6388 48.8833 11.6009C47.2038 12.0532 45.603 12.7614 44.1363 13.7012L20.7728 28.6912C18.8739 29.8922 17.2449 31.479 15.9899 33.3501C14.735 35.2212 13.8817 37.3354 13.4847 39.5575C13.0847 41.824 13.1382 44.1481 13.6422 46.3934C14.1462 48.6388 15.0906 50.7602 16.4198 52.6332C18.585 55.7756 21.6557 58.1733 25.2175 59.5026C28.7793 60.8319 32.6604 61.0287 36.3368 60.0664C38.016 59.6146 39.6168 58.9073 41.0838 57.9689L49.9984 52.2472C50.4414 51.9646 50.9247 51.7518 51.4315 51.616C52.5395 51.3265 53.709 51.3864 54.7822 51.7874C55.8553 52.1885 56.7804 52.9114 57.4324 53.8587C57.8325 54.4236 58.1168 55.0631 58.2687 55.7399C58.4206 56.4166 58.4372 57.117 58.3174 57.8003C58.1974 58.4696 57.9402 59.1065 57.5622 59.6702C57.1843 60.234 56.6938 60.7123 56.1221 61.0746L32.7613 76.0674C32.3183 76.3501 31.835 76.5629 31.3282 76.6986C30.2204 76.9888 29.0508 76.9295 27.9776 76.5287C26.9043 76.1279 25.9792 75.405 25.3272 74.4577C24.6128 73.4417 24.2787 72.2038 24.3841 70.9634L24.4638 70.0905L23.5959 69.8254C20.3128 68.8271 17.2231 67.2718 14.4601 65.2263L13.2626 64.3417L12.8228 65.6944C12.5866 66.4124 12.4002 67.1461 12.2648 67.8902C11.8649 70.1566 11.9184 72.4806 12.4223 74.7259C12.9261 76.9712 13.8702 79.0926 15.199 80.9658C17.3642 84.1081 20.435 86.5058 23.9968 87.835Z" fill="white"/>
</g>
<defs>
<clipPath id="clip0_3690_55">
<rect width="83" height="100" fill="white"/>
</clipPath>
</defs>
</svg>
